
<svg width="50px" height="50px" viewBox="0 0 50 50" version="1.1" xmlns="http://www.w3.org/2000/svg" xmlns:xlink="http://www.w3.org/1999/xlink">
    <g id="Page-1" stroke="none" stroke-width="1" fill="none" fill-rule="evenodd">
        <g id="app" transform="translate(-734.000000, -33.000000)">
            <g id="top">
                <g id="stop" transform="translate(734.000000, 33.000000)">
                    <circle id="Oval" fill="#FFFFFF" cx="25" cy="25" r="25"></circle>
                    <path d="M38.3636984,18.8182748 C38.7879924,18.3942597 39,17.8790255 39,17.2728513 C39,16.666677 38.7877135,16.1517218 38.3636984,15.7274277 L35.2728513,12.6363016 C34.8485572,12.2120076 34.333602,12 33.7277067,12 C33.1212534,12 32.6062982,12.2120076 32.1820042,12.6363016 L25.5001395,19.3181663 L18.8182748,12.6363016 C18.3942597,12.2120076 17.8790255,12 17.2728513,12 C16.666956,12 16.1517218,12.2120076 15.7274277,12.6363016 L12.6363016,15.7274277 C12.2122865,16.1514428 12,16.666677 12,17.2728513 C12,17.8790255 12.2120076,18.3939807 12.6363016,18.8182748 L19.3181663,25.5001395 L12.6363016,32.1820042 C12.2122865,32.6062982 12,33.1212534 12,33.7274277 C12,34.333602 12.2120076,34.8485572 12.6363016,35.2728513 L15.7274277,38.3636984 C16.1517218,38.7879924 16.666956,39 17.2728513,39 C17.8790255,39 18.3939807,38.7877135 18.8182748,38.3636984 L25.5001395,31.6818337 L32.1822831,38.3636984 C32.6065772,38.7879924 33.1212534,39 33.7279856,39 C34.3338809,39 34.8491151,38.7877135 35.2731302,38.3636984 L38.3636984,35.2728513 C38.7879924,34.8488361 39,34.333602 39,33.7274277 C39,33.1212534 38.7879924,32.6062982 38.3636984,32.1820042 L31.6818337,25.5001395 L38.3636984,18.8182748 Z" id="Shape" fill="#CEC0C1"></path>
                </g>
            </g>
        </g>
    </g>
</svg>
