
<svg width="18px" height="18px" viewBox="0 0 18 18" version="1.1" xmlns="http://www.w3.org/2000/svg" xmlns:xlink="http://www.w3.org/1999/xlink">
    <g id="Page-1" stroke="none" stroke-width="1" fill="none" fill-rule="evenodd">
        <g id="app" transform="translate(-467.000000, -146.000000)" fill="#459ce9">
            <g id="Group" transform="translate(316.000000, 143.000000)">
                <g id="Shape-3" transform="translate(151.000000, 3.000000)">
                    <path d="M17.1095556,7.95614173 L5.30533333,0.43880315 C4.87066667,0.146267717 4.32777778,1.52179232e-14 3.67577778,1.52179232e-14 C3.02377778,1.52179232e-14 2.48088889,0.146409449 2.04622222,0.43880315 L0.670222222,1.30492913 C0.223555556,1.58981102 0.000222222222,1.93606299 0.000222222222,2.34411024 C0.000222222222,2.7443622 0.223555556,3.09472441 0.670222222,3.39491339 L9.46933333,8.99546457 L0.67,14.6074961 C0.223333333,14.892378 1.42108547e-14,15.2387717 1.42108547e-14,15.6468189 C1.42108547e-14,16.0470709 0.223333333,16.3974331 0.67,16.697622 L2.046,17.5636063 C2.49266667,17.8484882 3.036,17.9909291 3.67555556,17.9909291 C4.31533333,17.9909291 4.85866667,17.8484882 5.30511111,17.5636063 L17.1095556,10.0462677 C17.5562222,9.74607874 17.7797778,9.39571654 17.7797778,8.99546457 C17.7797778,8.58741732 17.5562222,8.24102362 17.1095556,7.95614173 L17.1095556,7.95614173 Z" id="Shape"></path>
                </g>
            </g>
        </g>
    </g>
</svg>
