
<svg width="18px" height="18px" viewBox="0 0 18 18" version="1.1" xmlns="http://www.w3.org/2000/svg" xmlns:xlink="http://www.w3.org/1999/xlink">
    <g id="Page-1" stroke="none" stroke-width="1" fill="none" fill-rule="evenodd">
        <g id="app" transform="translate(-316.000000, -146.000000)" fill="#459ce9">
            <g id="Group" transform="translate(316.000000, 143.000000)">
                <g id="Shape-2" transform="translate(0.000000, 3.000000)">
                    <path d="M8.18116376,8.98233826 L16.8434052,3.37849592 C17.2833538,3.09402973 17.503,2.74616014 17.503,2.33488713 C17.503,1.92361413 17.2833538,1.57588606 16.8434052,1.29141987 L15.5067138,0.426557754 C15.0672027,0.142233093 14.5294633,2.13162821e-14 13.8939333,2.13162821e-14 C13.2581845,2.13162821e-14 12.7206639,0.142233093 12.2807153,0.426557754 L0.659594843,7.93292693 C0.219864948,8.21739312 2.84217094e-14,8.56526271 2.84217094e-14,8.97653571 C2.84217094e-14,9.38780872 0.219864948,9.73553679 0.659594843,10.020003 L12.2807153,17.5263721 C12.7206639,17.8108383 13.2581845,17.9530714 13.8939333,17.9530714 C14.5294633,17.9530714 15.0672027,17.8108383 15.5067138,17.5263721 L16.8434052,16.6616516 C17.2833538,16.3773269 17.503,16.0312971 17.503,15.6238453 C17.503,15.216535 17.2833538,14.8666841 16.8434052,14.5745755 L8.18116376,8.98233826 L8.18116376,8.98233826 Z" id="Shape"></path>
                </g>
            </g>
        </g>
    </g>
</svg>
