
<svg width="20px" height="20px" viewBox="0 0 20 20" version="1.1" xmlns="http://www.w3.org/2000/svg" xmlns:xlink="http://www.w3.org/1999/xlink">
    <g id="Page-1" stroke="none" stroke-width="1" fill="none" fill-rule="evenodd">
        <g id="app" transform="translate(-757.000000, -197.000000)" fill="#CEC0C1">
            <g id="project" transform="translate(12.000000, 195.000000)">
                <path d="M763.659123,6.98042224 C762.764939,5.44840261 761.551917,4.23538061 760.019897,3.3411964 C758.487558,2.44701219 756.814738,2 755.00032,2 C753.186061,2 751.512921,2.44701219 749.980742,3.3411964 C748.448562,4.23522079 747.23554,5.4482428 746.341356,6.98042224 C745.447012,8.51260168 745,10.1859008 745,12 C745,13.8140992 745.447172,15.4872385 746.341196,17.0195778 C747.235381,18.5512777 748.448403,19.7646194 749.980582,20.6588036 C751.512762,21.5529878 753.185901,22 755.00016,22 C756.814419,22 758.487718,21.5529878 760.019738,20.6588036 C761.551757,19.7647792 762.764779,18.5515974 763.658963,17.0195778 C764.552988,15.4872385 765,13.8139394 765,12 C765,10.1859008 764.552988,8.51244187 763.659123,6.98042224 L763.659123,6.98042224 Z" id="Path"></path>
            </g>
        </g>
    </g>
</svg>
