
<svg width="20px" height="20px" viewBox="0 0 20 20" version="1.1" xmlns="http://www.w3.org/2000/svg" xmlns:xlink="http://www.w3.org/1999/xlink">
    <g id="Page-1" stroke="none" stroke-width="1" fill="none" fill-rule="evenodd">
        <g id="app" transform="translate(-757.000000, -197.000000)" fill="#367bb8">
            <path d="M775.659123,201.980422 C774.764939,200.448403 773.551917,199.235381 772.019897,198.341196 C770.487558,197.447012 768.814738,197 767.00032,197 C765.186061,197 763.512921,197.447012 761.980742,198.341196 C760.448562,199.235221 759.23554,200.448243 758.341356,201.980422 C757.447012,203.512602 757,205.185901 757,207 C757,208.814099 757.447172,210.487238 758.341196,212.019578 C759.235381,213.551278 760.448403,214.764619 761.980582,215.658804 C763.512762,216.552988 765.185901,217 767.00016,217 C768.814419,217 770.487718,216.552988 772.019738,215.658804 C773.551757,214.764779 774.764779,213.551597 775.658963,212.019578 C776.552988,210.487238 777,208.813939 777,207 C777,205.185901 776.552988,203.512442 775.659123,201.980422 L775.659123,201.980422 Z M772.00024,207.715987 L764.916767,211.882773 C764.786515,211.960765 764.647632,211.99976 764.50012,211.99976 C764.361238,211.99976 764.222355,211.96508 764.083473,211.895718 C763.805709,211.730786 763.666826,211.487862 763.666826,211.166627 L763.666826,202.833373 C763.666826,202.512298 763.805709,202.269214 764.083473,202.104282 C764.369868,201.947979 764.647632,201.952294 764.916767,202.117227 L772.00024,206.283854 C772.277844,206.439996 772.416727,206.678925 772.416727,207 C772.416727,207.321075 772.277844,207.559684 772.00024,207.715987 L772.00024,207.715987 Z" id="Shape"></path>
        </g>
    </g>
</svg>
