
<svg width="27px" height="27px" viewBox="0 0 27 27" version="1.1" xmlns="http://www.w3.org/2000/svg" xmlns:xlink="http://www.w3.org/1999/xlink">
    <g id="Page-1" stroke="none" stroke-width="1" fill="none" fill-rule="evenodd">
        <g id="app" transform="translate(-750.000000, -45.000000)" fill="#4A9DE6" fill-rule="nonzero">
            <g id="top">
                <g id="Group" transform="translate(738.000000, 33.000000)">
                    <path d="M36.1741335,21.5857186 C39.9231137,25.4593685 39.9438164,30.8667214 36.2245678,34.7586746 C32.5053191,38.6506277 25.9777745,40.0522638 20.3226915,38.1732271 C14.6676086,36.2941904 11.3015607,31.6051713 12.1225979,26.7502181 C12.9436352,21.8952648 17.7460913,18.0905218 23.8219531,17.4814109 L23.8219531,14.7002024 L27.1968658,14.7002024 L27.1968658,17.4814109 C29.660552,17.7244291 31.9217435,18.5074878 33.7779455,19.6685749 L36.2416318,17.6974271 L38.6378198,19.6145708 L36.1741335,21.5722176 L36.1741335,21.5857186 Z M25.5094094,36.3018217 C31.1011479,36.3018217 35.6341475,32.6750563 35.6341475,28.2012145 C35.6341475,23.7273726 31.1011479,20.1006072 25.5094094,20.1006072 C19.917671,20.1006072 15.3846714,23.7273726 15.3846714,28.2012145 C15.3846714,32.6750563 19.917671,36.3018217 25.5094094,36.3018217 Z M20.4470404,12 L30.5717785,12 L30.5717785,14.7002024 L20.4470404,14.7002024 L20.4470404,12 Z M29.0868169,23.4218562 L31.4830049,25.3389999 L25.5094094,30.0913562 L23.130096,28.2012145 L29.0868169,23.4218562 Z" id="Shape"></path>
                </g>
            </g>
        </g>
    </g>
</svg>