
<svg width="50px" height="50px" viewBox="0 0 50 50" version="1.1" xmlns="http://www.w3.org/2000/svg" xmlns:xlink="http://www.w3.org/1999/xlink">
    <g id="Page-1" stroke="none" stroke-width="1" fill="none" fill-rule="evenodd">
        <g id="app" transform="translate(-734.000000, -33.000000)">
            <g id="top">
                <g id="stop" transform="translate(734.000000, 33.000000)">
                    <circle id="Oval" fill="#FFFFFF" cx="25" cy="25" r="25"></circle>
                    <path d="M38.7148258,27.0168851 L16.857002,38.6727488 C16.4550768,38.8909163 16.026521,39 15.5713346,39 C15.1427789,39 14.7142231,38.902987 14.2856673,38.7089611 C13.4285558,38.2475906 13,37.5680526 13,36.6694531 L13,13.3586198 C13,12.4604674 13.4285558,11.7804824 14.2856673,11.3191119 C15.1694095,10.8818829 16.026521,10.8939536 16.857002,11.3553241 L38.7148258,23.0107408 C39.5714442,23.4475227 40,24.1158841 40,25.0140365 C40,25.9121889 39.5714442,26.5796561 38.7148258,27.0168851 L38.7148258,27.0168851 Z" id="Path" fill="#51C623"></path>
                </g>
            </g>
        </g>
    </g>
</svg>
